<?xml version="1.0"?>
<svg xmlns="http://www.w3.org/2000/svg" height="512px" viewBox="0 -16 480 480" width="512px"><path d="m456 0h-432c-13.253906 0-24 10.746094-24 24v304c0 13.253906 10.746094 24 24 24h142.9375l-6 48h-8.9375c-4.417969 0-8 3.582031-8 8v24h-32v16h256v-16h-32v-24c0-4.417969-3.582031-8-8-8h-8.9375l-6-48h142.9375c13.253906 0 24-10.746094 24-24v-304c0-13.253906-10.746094-24-24-24zm-432 16h432c4.417969 0 8 3.582031 8 8v248h-448v-248c0-4.417969 3.582031-8 8-8zm296 416h-160v-16h160zm-17.0625-32h-125.875l6-48h113.875zm153.0625-64h-432c-4.417969 0-8-3.582031-8-8v-40h448v40c0 4.417969-3.582031 8-8 8zm0 0" fill="#ffb4c5"/><path d="m400 304h32v16h-32zm0 0" fill="#ffb4c5"/><path d="m160 215.527344v24.472656h-40v16h96v-16h-40v-24.472656c36.414062-4.109375 63.945312-34.882813 64-71.527344h-16c0 30.929688-25.070312 56-56 56s-56-25.070312-56-56h-16c.054688 36.644531 27.585938 67.417969 64 71.527344zm0 0" fill="#ffb4c5"/><path d="m168 184c22.082031-.027344 39.972656-17.917969 40-40v-48c0-22.089844-17.910156-40-40-40s-40 17.910156-40 40v48c.027344 22.082031 17.917969 39.972656 40 40zm0-112c13.253906 0 24 10.746094 24 24h-16v16h16v16h-16v16h16c0 13.253906-10.746094 24-24 24s-24-10.746094-24-24h16v-16h-16v-16h16v-16h-16c0-13.253906 10.746094-24 24-24zm0 0" fill="#ffb4c5"/><path d="m48 32h32v16h-32zm0 0" fill="#ffb4c5"/><path d="m48 64h32v16h-32zm0 0" fill="#ffb4c5"/><path d="m114.34375 69.65625 11.3125-11.3125-8-8c-1.5-1.5-3.535156-2.34375-5.65625-2.34375h-16v16h12.6875zm0 0" fill="#ffb4c5"/><path d="m264 48h32v16h-32zm0 0" fill="#ffb4c5"/><path d="m264 80h32v16h-32zm0 0" fill="#ffb4c5"/><path d="m235.3125 80h12.6875v-16h-16c-2.121094 0-4.15625.84375-5.65625 2.34375l-8 8 11.3125 11.3125zm0 0" fill="#ffb4c5"/><path d="m328 256h96c4.417969 0 8-3.582031 8-8v-72c-.027344-22.082031-17.917969-39.972656-40-40h-32c-22.082031.027344-39.972656 17.917969-40 40v72c0 4.417969 3.582031 8 8 8zm88-80v64h-32v-54.113281l16.152344-32.367188c9.476562 3.421875 15.808594 12.402344 15.847656 22.480469zm-32.976562-24-7.023438 14.078125-7.023438-14.078125zm-47.023438 24c.039062-10.078125 6.371094-19.058594 15.847656-22.480469l16.152344 32.367188v54.113281h-32zm0 0" fill="#ffb4c5"/><path d="m416 96v-8c4.417969 0 8-3.582031 8-8 0-26.507812-21.492188-48-48-48s-48 21.492188-48 48c0 4.417969 3.582031 8 8 8v8c0 22.089844 17.910156 40 40 40s40-17.910156 40-40zm-40-48c13.695312.019531 25.863281 8.730469 30.296875 21.6875-6.140625-2.832031-11.769531-6.667969-16.648437-11.351562-3.125-3.117188-8.179688-3.117188-11.304688 0-10.230469 5.433593-21.234375 9.25-32.632812 11.320312 4.441406-12.941406 16.605468-21.640625 30.289062-21.65625zm0 72c-13.253906 0-24-10.746094-24-24v-11.382812c10.769531-2.394532 21.25-5.9375 31.265625-10.570313 5.085937 4.183594 10.714844 7.652344 16.734375 10.320313v11.632812c0 13.253906-10.746094 24-24 24zm0 0" fill="#ffb4c5"/></svg>
