<?xml version="1.0" encoding="iso-8859-1"?>
<!-- Generator: Adobe Illustrator 17.1.0, SVG Export Plug-In . SVG Version: 6.00 Build 0)  -->
<!DOCTYPE svg PUBLIC "-//W3C//DTD SVG 1.1//EN" "http://www.w3.org/Graphics/SVG/1.1/DTD/svg11.dtd">
<svg xmlns="http://www.w3.org/2000/svg" xmlns:xlink="http://www.w3.org/1999/xlink" version="1.1" id="Capa_1" x="0px" y="0px" viewBox="0 0 487.867 487.867" style="enable-background:new 0 0 487.867 487.867;" xml:space="preserve" width="512px" height="512px">
<path d="M487.867,194.235c0-0.3-0.037-0.593-0.09-0.883c-0.014-0.077-0.029-0.153-0.046-0.229c-0.064-0.277-0.143-0.55-0.251-0.81  c-0.012-0.03-0.03-0.057-0.043-0.086c-0.104-0.235-0.228-0.459-0.366-0.675c-0.042-0.065-0.083-0.128-0.127-0.191  c-0.163-0.23-0.338-0.452-0.539-0.653c-0.005-0.005-0.01-0.008-0.015-0.013c-0.194-0.193-0.411-0.365-0.638-0.526  c-0.065-0.046-0.132-0.09-0.2-0.134c-0.063-0.04-0.12-0.086-0.185-0.124L280.838,71.828c-1.552-0.896-3.463-0.895-5.013,0.007  L2.488,230.682c-0.063,0.036-0.118,0.081-0.178,0.12c-0.066,0.043-0.131,0.086-0.195,0.131c-0.221,0.156-0.43,0.325-0.62,0.512  c-0.011,0.011-0.024,0.02-0.035,0.031c-0.2,0.201-0.376,0.422-0.539,0.653c-0.044,0.062-0.084,0.125-0.125,0.188  c-0.136,0.212-0.257,0.432-0.359,0.662c-0.016,0.035-0.036,0.067-0.05,0.102c-0.109,0.26-0.188,0.533-0.251,0.81  c-0.017,0.075-0.031,0.149-0.045,0.226c-0.052,0.287-0.088,0.578-0.088,0.876L0,235.005v58.62c0,1.786,0.953,3.437,2.5,4.33  l204.527,118.084c0.151,0.087,0.307,0.158,0.464,0.228c0.039,0.018,0.076,0.04,0.115,0.057c0.264,0.11,0.536,0.189,0.811,0.252  c0.074,0.017,0.148,0.03,0.223,0.044c0.294,0.053,0.59,0.089,0.887,0.089c0.298,0,0.594-0.037,0.888-0.089  c0.075-0.014,0.15-0.027,0.224-0.044c0.277-0.063,0.55-0.142,0.815-0.253c0.033-0.014,0.063-0.033,0.096-0.047  c0.166-0.074,0.331-0.15,0.49-0.243l273.34-158.847c1.54-0.896,2.487-2.542,2.487-4.323v-58.62l0-0.003  C487.866,194.238,487.867,194.237,487.867,194.235z M209.519,347.311L37.055,247.739L300.425,94.684l172.466,99.572L209.519,347.311  z M278.346,81.937l12.095,6.983L27.071,241.974l-12.095-6.983L278.346,81.937z M214.527,403.02v-4.75c0-2.762-2.239-5-5-5  s-5,2.238-5,5v4.779L10,290.738v-47.073l14.541,8.396c0.045,0.026,0.09,0.053,0.136,0.078l179.85,103.837v17.308  c0,2.762,2.239,5,5,5s5-2.238,5-5v-17.317l263.339-153.035v47.054L214.527,403.02z M188.53,373.83  c-0.926,1.604-2.607,2.501-4.335,2.501c-0.848,0-1.708-0.216-2.495-0.671L28.1,286.979c-2.392-1.381-3.211-4.438-1.83-6.83  c1.381-2.391,4.438-3.212,6.83-1.83L186.7,367C189.091,368.381,189.911,371.438,188.53,373.83z M461.589,236.625  c1.388,2.388,0.576,5.448-1.811,6.836L237.912,372.396c-0.791,0.459-1.655,0.678-2.507,0.678c-1.723,0-3.4-0.892-4.328-2.488  c-1.387-2.388-0.577-5.448,1.811-6.836l221.866-128.936C457.143,233.426,460.201,234.238,461.589,236.625z M185.368,254.848  c-4.838-2.794-11.155-4.332-17.786-4.332c-6.639,0-12.949,1.542-17.768,4.342c-5.577,3.241-8.771,8.032-8.764,13.144  c0.007,5.135,3.242,9.945,8.875,13.198c4.842,2.795,11.162,4.335,17.796,4.335c0,0,0,0,0,0c6.636,0,12.941-1.541,17.757-4.339  c5.577-3.241,8.771-8.033,8.764-13.146C194.236,262.912,191.001,258.101,185.368,254.848z M180.455,272.549  c-3.265,1.897-7.906,2.985-12.733,2.985c-4.835,0-9.5-1.092-12.796-2.995c-2.425-1.4-3.874-3.102-3.875-4.552  c-0.002-1.428,1.414-3.104,3.788-4.483c3.269-1.899,7.913-2.988,12.744-2.988c4.832,0,9.492,1.091,12.786,2.992  c2.425,1.4,3.874,3.103,3.875,4.555C184.245,269.492,182.829,271.169,180.455,272.549z M351.075,156.873  c-15.753-9.095-36.552-14.103-58.566-14.103c-22.023,0-42.773,5.013-58.429,14.113l-15.224,8.847  c-1.542,0.896-2.49,2.547-2.488,4.33c0.002,1.784,0.955,3.432,2.5,4.323l30.636,17.688c1.551,0.895,3.464,0.893,5.013-0.007  l15.223-8.848c6.025-3.501,14.16-5.429,22.907-5.429c8.625,0,17.003,1.98,22.986,5.436c5.158,2.978,8.119,6.794,8.124,10.471  c0.006,3.639-2.899,7.416-7.97,10.362c-7.356,4.274-17.675,6.726-28.311,6.726c-3.614,0-7.218-0.279-10.708-0.829  c-6.406-1.013-13.011-1.525-19.63-1.525c-19.992,0-38.838,4.554-53.067,12.822L179.5,235.53c-1.542,0.896-2.49,2.547-2.488,4.33  c0.002,1.784,0.955,3.432,2.5,4.323l30.986,17.891c0.773,0.446,1.637,0.67,2.5,0.67c0.868,0,1.736-0.226,2.512-0.677l25.145-14.613  c4.36-2.533,10.516-3.986,16.888-3.986c2.179,0,4.349,0.168,6.452,0.5c7.711,1.218,15.659,1.834,23.623,1.834  c24.059,0,46.726-5.471,63.829-15.404c16.463-9.567,25.519-22.584,25.5-36.651C376.928,179.593,367.74,166.498,351.075,156.873z   M346.421,221.751c-15.372,8.929-36.806,14.051-58.804,14.051c-7.443,0-14.867-0.575-22.063-1.711  c-2.616-0.414-5.313-0.623-8.012-0.623c-8.204,0-15.986,1.896-21.913,5.34l-22.641,13.158l-21.002-12.126l17.108-9.942  c12.542-7.289,30.053-11.469,48.042-11.469c6.098,0,12.178,0.472,18.071,1.403c4.005,0.631,8.133,0.951,12.267,0.951  c12.53,0,24.368-2.869,33.335-8.079c8.358-4.858,12.956-11.614,12.945-19.023c-0.011-7.447-4.672-14.236-13.124-19.116  c-7.567-4.369-17.507-6.775-27.986-6.775c-10.484,0-20.404,2.408-27.932,6.782l-12.719,7.393l-20.653-11.924l7.762-4.511  c14.153-8.228,33.119-12.759,53.404-12.759c20.287,0,39.311,4.532,53.565,12.763c13.446,7.766,20.859,17.79,20.873,28.226  C366.96,204.11,359.671,214.051,346.421,221.751z" fill="#ffb4c5"/>
<g>
</g>
<g>
</g>
<g>
</g>
<g>
</g>
<g>
</g>
<g>
</g>
<g>
</g>
<g>
</g>
<g>
</g>
<g>
</g>
<g>
</g>
<g>
</g>
<g>
</g>
<g>
</g>
<g>
</g>
</svg>
